<?xml version="1.0" encoding="utf-8"?>
<!-- Generator: Adobe Illustrator 19.1.0, SVG Export Plug-In . SVG Version: 6.00 Build 0)  -->
<svg version="1.1" id="Layer_1" xmlns="http://www.w3.org/2000/svg" xmlns:xlink="http://www.w3.org/1999/xlink" x="0px" y="0px"
	 viewBox="1497.5 155 505 90" style="enable-background:new 1497.5 155 505 90;" xml:space="preserve">
<style type="text/css">
	.st0{fill:#231F20;}
	.st1{fill:#FF3208;}
	.st2{fill:#FFFFFF;}
</style>
<g>
	<path class="st0" d="M1812.2,184.4c-0.3,0-0.6,0-0.9,0v0H1812.2z"/>
</g>
<g>
	<path class="st0" d="M1832,184.4c-1.4,0-2.7,0.1-4.1,0L1832,184.4z"/>
</g>
<g>
	<path class="st0" d="M1816.3,184.4c-1.9,0-3.9,0-5.8,0l7.5,0C1817.5,184.4,1816.9,184.4,1816.3,184.4z M1824.8,184.4h1.2
		C1825.5,184.4,1825.2,184.4,1824.8,184.4z M1839.8,184.4h-4.7c-1.6,0-3.1,0-4.7,0c-0.2,0-0.3,0-0.5,0l13.5,0
		C1842.3,184.4,1841.1,184.4,1839.8,184.4z"/>
</g>
<g>
	<g>
		<g>
			<path class="st1" d="M1868.4,196.4c-1.7,0.7-3.5,1.4-5.4,1.8c-1.5,0.4-3.1,0.6-4.6,0.8c-5.9,0.6-11.8,0.3-17.7,0.3
				c-5.9,0.1-11.8,0-17.8,0c-0.8,0-0.9,0.3-0.9,1c0,4.4,0,8.7,0,13.1c0,0.8-0.2,1-1,1c-5.3,0-10.7,0-16,0c-0.8,0-1-0.2-1-1
				c0-9.4,0-18.7,0-28.1c0-0.7,0.2-0.8,0.8-0.8c1.4,0,2.9,0,4.3,0c0.3,0,0.6,0,0.9,0l0.3,0l7.5,0l6.8,0h1.2c1.4,0.1,2.7,0,4.1,0
				l13.5,0h0.9c1.5,0,3.1,0,4.6,0c1.6,0,3.1,0,4.7,0c2,0,4-0.2,5.8-1.1c1.7-0.9,2.8-2.3,3.2-4.4c0.5-2.9,1.7-5.6,3.2-8.1
				c1.5-2.4,3.3-4.7,5.5-6.5c1.6-1.3,3.3-2.6,5.2-3.6c1.9-1,3.9-1.9,6-2.7c1.5-0.5,3.1-0.9,4.6-1.2c5.7-1.2,11.5-1,17.3-1
				c11.1,0,22.2,0,33.2,0c0.2,0,0.4,0,0.6,0c0.2,0,0.3,0,0.4,0.1c0.1,0.2-0.1,0.3-0.2,0.4c-3.3,4.3-6.7,8.6-9.9,13
				c-1,1.4-2.1,1.8-3.7,1.8c-9.3-0.1-18.6,0-27.9,0c-3.6,0-7,0.8-10.1,2.6c-2.7,1.6-4.7,3.8-5.9,6.7c-0.4,0.9-0.4,2-0.6,2.9
				c-0.9,3.7-2.9,6.8-5.7,9.3C1872.9,194.2,1870.7,195.4,1868.4,196.4z"/>
		</g>
		<g>
			<g>
				<path class="st1" d="M1500.6,155.8h59.5c6.2,0,11.3,2.6,15.5,7.9c1.7,2.8,2.5,5.4,2.5,7.9v10.9c0,5.3-2.7,9.8-8.2,13.5
					c-3.1,1.7-6.2,2.5-9.3,2.5h-42.2v15.9c0,0.2-0.1,0.3-0.3,0.3h-17.6c-0.2,0-0.3-0.1-0.3-0.3V156
					C1500.3,155.8,1500.4,155.8,1500.6,155.8z M1518.4,169.8v14.7h34.4c3.7,0,6-1.7,7-5c0.1-0.8,0.2-1.5,0.2-2.3
					c0-3.6-1.4-5.9-4.3-7.1c-0.9-0.3-1.8-0.4-2.7-0.4H1518.4z"/>
			</g>
			<path class="st1" d="M1694.1,155.8h-12.8l-30.3,58.6h17l3.8-7.8h32l3.7,7.8h17L1694.1,155.8z M1688.1,173l9.2,19.3h-18.8
				L1688.1,173z"/>
			<path class="st1" d="M1757.1,190.3v24H1741v-24l-25-34.5h17.7l15.6,23.6l15.3-23.6h17.7L1757.1,190.3z"/>
			<polygon class="st1" points="1641.7,200.2 1641.7,214.3 1587.6,214.3 1587.6,155.8 1603.9,155.8 1603.9,200.2 			"/>
		</g>
	</g>
	<g>
		<g>
			<path class="st2" d="M1938.7,214.2c-0.1,0.2-0.3,0.1-0.4,0.1c-0.2,0-0.5,0-0.7,0c-13.2,0-26.5,0-39.7,0c-3.8,0-7.6-0.3-11.2-1.3
				c-2.5-0.6-4.8-1.5-7.1-2.6c-3-1.4-5.6-3.1-8.1-5.3c-1.5-1.3-2.8-2.8-4-4.4c-0.3-0.5,0.1-0.6,0.3-0.7c0.9-0.4,1.9-0.7,2.9-1.1
				c4.1-1.8,7.6-4.4,9.9-8.3c0.1-0.2,0.1-0.5,0.4-0.6c0.8,1.8,1.8,3.4,3.3,4.7c2,1.8,4.3,2.9,6.9,3.7c2.5,0.7,5.1,0.7,7.7,0.7
				c9.1,0,18.3,0,27.4,0c0.7,0,1.1,0.3,1.6,0.8c2.4,3.2,4.9,6.3,7.3,9.5c1.1,1.4,2.2,2.9,3.3,4.3
				C1938.6,213.9,1938.8,214,1938.7,214.2z"/>
		</g>
		<g>
			<path class="st2" d="M1804.2,171c2.6-3.3,5-6.5,7.5-9.6c1.3-1.7,2.6-3.3,3.9-4.9c0.4-0.5,0.8-0.6,1.3-0.6c6.9,0,13.7,0,20.6,0
				c4.9,0,9.7-0.1,14.6-0.1c3.9,0.1,7.8,0.3,11.5,1.4c2.6,0.7,5.1,1.7,7.4,3.1c0.5,0.3,0.5,0.4,0,0.8c-3.8,2.6-6.7,5.9-8.9,9.9
				c-0.2,0.4-0.4,0.8-0.6,1.2c-0.2,0.4-0.3,0.8-0.6,1.1c-1.9-1.6-4.2-2-6.5-2.1c-16.4,0-32.8,0-49.2-0.1
				C1805,171,1804.7,171,1804.2,171z"/>
		</g>
		<g id="XMLID_1_">
			<g>
				<path class="st2" d="M2000.3,155.7l-10.4,13.8l-0.1,0.1h-49.2c-0.2,0-0.3-0.1-0.3-0.3V156c0-0.2,0.1-0.3,0.3-0.3H2000.3z"/>
				<path class="st2" d="M1989.8,178.7v12.7H1959v22.7c0,0.2-0.1,0.3-0.3,0.3h-18.1c-0.2,0-0.3-0.1-0.3-0.3V179
					c0-0.2,0.1-0.3,0.3-0.3L1989.8,178.7L1989.8,178.7z"/>
			</g>
		</g>
		<g>
			<path class="st2" d="M1504.6,239.1h-3.9v-18.5h10.9c0.8,0,1.6,0.1,2.2,0.4c0.7,0.2,1.3,0.6,1.7,1.1c0.5,0.5,0.9,1.1,1.1,1.9
				c0.3,0.7,0.4,1.6,0.4,2.6s-0.1,1.9-0.4,2.6c-0.3,0.7-0.6,1.4-1.1,1.9c-0.5,0.5-1.1,0.9-1.7,1.1c-0.7,0.2-1.4,0.4-2.2,0.4h-7
				V239.1L1504.6,239.1z M1504.6,229.3h5.2c0.8,0,1.5-0.2,2.1-0.7c0.6-0.4,0.8-1.1,0.8-2.1c0-1-0.3-1.7-0.8-2.1
				c-0.6-0.4-1.2-0.6-2.1-0.6h-5.2V229.3L1504.6,229.3z"/>
			<path class="st2" d="M1534.6,239.1v-18.5h3.4v18.5H1534.6z"/>
			<path class="st2" d="M1565.3,230.5c0-0.3,0-0.5-0.1-0.8c-0.1-0.3-0.2-0.5-0.3-0.7c-0.2-0.2-0.4-0.3-0.7-0.5
				c-0.3-0.1-0.7-0.2-1.1-0.2h-6.7v-2.6h7.7c0.5,0,1,0.1,1.5,0.2c0.5,0.2,1,0.4,1.5,0.8c0.5,0.4,0.8,0.8,1.1,1.5
				c0.3,0.6,0.5,1.3,0.5,2.2v8.5h-9.1c-1.3,0-2.3-0.4-3-1.1c-0.7-0.7-1-1.7-1-2.9c0-0.6,0.1-1.1,0.3-1.6c0.2-0.5,0.4-0.9,0.8-1.3
				c0.3-0.3,0.8-0.6,1.3-0.8c0.5-0.2,1.1-0.3,1.8-0.3h5.7V230.5L1565.3,230.5z M1565.3,233.8h-4.4c-0.2,0-0.4,0-0.6,0
				c-0.2,0-0.4,0.1-0.6,0.2c-0.2,0.1-0.3,0.2-0.4,0.4c-0.1,0.2-0.2,0.4-0.2,0.7c0,0.3,0.1,0.5,0.2,0.7c0.1,0.2,0.2,0.3,0.4,0.4
				c0.2,0.1,0.4,0.2,0.6,0.2c0.2,0,0.4,0,0.6,0h4.4V233.8z"/>
			<path class="st2" d="M1598.5,241.7c-0.3,0.5-0.6,1-1,1.4c-0.4,0.4-0.9,0.7-1.4,0.9c-0.5,0.2-1.1,0.3-1.6,0.3h-7.5v-2.6h6.5
				c0.3,0,0.7-0.1,0.9-0.2c0.3-0.1,0.5-0.2,0.6-0.4s0.3-0.3,0.4-0.5c0.1-0.2,0.1-0.4,0.1-0.6v-0.9h-4.2c-0.6,0-1.2-0.1-1.7-0.2
				c-0.6-0.1-1.1-0.4-1.5-0.7c-0.4-0.3-0.8-0.8-1.1-1.3c-0.3-0.6-0.4-1.2-0.4-2v-8.9h3.4v8.5c0,0.2,0,0.4,0.1,0.6
				c0,0.2,0.1,0.4,0.3,0.6c0.1,0.2,0.3,0.4,0.6,0.5c0.3,0.1,0.6,0.2,1,0.2h3.6v-10.4h3.4v14.1
				C1598.9,240.6,1598.8,241.2,1598.5,241.7z"/>
			<path class="st2" d="M1627.6,236.4v2.6h-5.4c-2,0-3.6-0.6-4.7-1.7c-1.1-1.1-1.7-2.8-1.7-4.9c0-2.2,0.6-3.8,1.7-4.9
				c1.1-1.1,2.7-1.7,4.7-1.7h5.4v2.6h-4.9c-0.4,0-0.8,0-1.2,0.1c-0.4,0-0.7,0.2-1,0.3c-0.3,0.2-0.5,0.4-0.7,0.8
				c-0.2,0.3-0.3,0.8-0.3,1.5h7.7v2.6h-7.7c0,0.4,0.1,0.7,0.2,1c0.1,0.3,0.2,0.6,0.4,0.8c0.2,0.2,0.5,0.4,0.9,0.6
				c0.4,0.1,1,0.2,1.7,0.2L1627.6,236.4L1627.6,236.4z"/>
			<path class="st2" d="M1648.5,239.1h-3.4v-13.2h6.1c0.7,0,1.3,0.1,1.8,0.3c0.5,0.2,0.9,0.5,1.2,0.9c0.3,0.3,0.5,0.7,0.6,1.1
				c0.1,0.4,0.2,0.8,0.2,1.1v2h-3.4v-1.3c0-0.1,0-0.2-0.1-0.4c0-0.2-0.1-0.3-0.2-0.4c-0.1-0.1-0.2-0.2-0.4-0.3
				c-0.2-0.1-0.4-0.1-0.6-0.1h-1.7L1648.5,239.1L1648.5,239.1z"/>
			<path class="st2" d="M1673.2,232.7c-0.7-0.7-1-1.7-1-2.8c0-0.6,0.1-1.1,0.3-1.6c0.2-0.5,0.4-0.9,0.8-1.3c0.3-0.3,0.8-0.6,1.3-0.8
				c0.5-0.2,1.1-0.3,1.8-0.3h8.4v2.6h-7.1c-0.2,0-0.4,0-0.7,0c-0.2,0-0.4,0.1-0.6,0.2c-0.2,0.1-0.3,0.2-0.4,0.4
				c-0.1,0.2-0.2,0.4-0.2,0.7c0,0.3,0.1,0.5,0.2,0.7c0.1,0.2,0.2,0.3,0.4,0.4c0.2,0.1,0.4,0.1,0.6,0.2c0.2,0,0.4,0,0.7,0h3.7
				c0.7,0,1.3,0.1,1.8,0.3c0.5,0.2,0.9,0.5,1.3,0.8c0.3,0.3,0.6,0.8,0.8,1.3c0.2,0.5,0.3,1,0.3,1.6c0,1.2-0.3,2.1-1,2.9
				c-0.7,0.7-1.7,1.1-3,1.1h-9.1v-2.6h7.8c0.2,0,0.4,0,0.7,0c0.2,0,0.4-0.1,0.6-0.2c0.2-0.1,0.3-0.2,0.4-0.4
				c0.1-0.2,0.2-0.4,0.2-0.7c0-0.3-0.1-0.5-0.2-0.7c-0.1-0.2-0.2-0.3-0.4-0.4c-0.2-0.1-0.4-0.2-0.6-0.2c-0.2,0-0.4,0-0.7,0h-3.7
				C1674.9,233.8,1673.9,233.4,1673.2,232.7z"/>
			<path class="st2" d="M1742.5,223.7h-6.7c-1.6,0-2.8,0.5-3.4,1.6c-0.7,1-1,2.5-1,4.5c0,2,0.3,3.5,1,4.5c0.7,1,1.8,1.6,3.4,1.6h6.7
				v3.2h-7.8c-2.5,0-4.4-0.8-5.7-2.4c-1.3-1.6-2-3.9-2-6.9c0-3,0.7-5.3,2-6.9c1.3-1.6,3.2-2.4,5.7-2.4h7.8V223.7z"/>
			<path class="st2" d="M1759.4,229.5c0.3-0.9,0.8-1.6,1.4-2.2c0.6-0.6,1.3-1,2.2-1.3c0.9-0.3,1.8-0.4,2.9-0.4c1.1,0,2,0.1,2.9,0.4
				c0.9,0.3,1.6,0.7,2.2,1.3c0.6,0.6,1.1,1.3,1.4,2.2c0.3,0.9,0.5,1.8,0.5,3c0,1.1-0.2,2.1-0.5,3c-0.3,0.9-0.8,1.6-1.4,2.2
				c-0.6,0.6-1.3,1-2.2,1.3c-0.9,0.3-1.8,0.4-2.9,0.4c-1.1,0-2.1-0.1-2.9-0.4c-0.9-0.3-1.6-0.7-2.2-1.3c-0.6-0.6-1.1-1.3-1.4-2.2
				c-0.3-0.9-0.5-1.8-0.5-3C1758.9,231.3,1759.1,230.3,1759.4,229.5z M1764.3,228.7c-0.4,0.2-0.8,0.5-1,0.9
				c-0.3,0.4-0.4,0.8-0.5,1.3c-0.1,0.5-0.2,1-0.2,1.6c0,0.6,0.1,1.1,0.2,1.6c0.1,0.5,0.3,0.9,0.5,1.3c0.3,0.4,0.6,0.7,1,0.9
				c0.4,0.2,1,0.3,1.7,0.3c0.7,0,1.2-0.1,1.7-0.3c0.4-0.2,0.8-0.5,1-0.9c0.3-0.4,0.4-0.8,0.5-1.3c0.1-0.5,0.2-1,0.2-1.6
				c0-0.6-0.1-1.1-0.2-1.6c-0.1-0.5-0.3-0.9-0.5-1.3c-0.3-0.4-0.6-0.7-1-0.9c-0.4-0.2-1-0.3-1.7-0.3
				C1765.3,228.4,1764.8,228.5,1764.3,228.7z"/>
			<path class="st2" d="M1793.9,228.6v10.4h-3.4v-13.2h14.6c0.7,0,1.3,0.1,1.8,0.3c0.5,0.2,1,0.5,1.3,0.9c0.4,0.4,0.7,0.8,0.9,1.3
				c0.2,0.5,0.3,1,0.3,1.5v9.2h-3.4v-8.5c0-0.2,0-0.4-0.1-0.6c0-0.2-0.1-0.4-0.3-0.6c-0.1-0.2-0.3-0.3-0.6-0.5
				c-0.3-0.1-0.6-0.2-1-0.2h-2.4v10.4h-3.4v-10.4L1793.9,228.6L1793.9,228.6z"/>
			<path class="st2" d="M1838.4,236.4v2.6h-5.4c-2,0-3.6-0.6-4.7-1.7c-1.1-1.1-1.7-2.8-1.7-4.9c0-2.2,0.6-3.8,1.7-4.9
				c1.1-1.1,2.7-1.7,4.7-1.7h5.4v2.6h-4.9c-0.4,0-0.8,0-1.2,0.1c-0.4,0-0.7,0.2-1,0.3c-0.3,0.2-0.5,0.4-0.7,0.8
				c-0.2,0.3-0.3,0.8-0.3,1.5h7.7v2.6h-7.7c0,0.4,0.1,0.7,0.2,1c0.1,0.3,0.2,0.6,0.4,0.8c0.2,0.2,0.5,0.4,0.9,0.6
				c0.4,0.1,1,0.2,1.7,0.2L1838.4,236.4L1838.4,236.4z"/>
			<path class="st2" d="M1894.3,223.7h-5.9c-0.6,0-1.1,0.1-1.7,0.2c-0.6,0.1-1.1,0.3-1.5,0.7c-0.5,0.3-0.8,0.8-1.1,1.4
				c-0.3,0.6-0.4,1.4-0.4,2.4h10.3v3h-10.3v7.7h-3.9v-9.6c0-1.3,0.1-2.5,0.4-3.6c0.3-1.1,0.7-2,1.3-2.8c0.6-0.8,1.4-1.4,2.4-1.8
				c1-0.4,2.3-0.7,3.8-0.7h6.6V223.7z"/>
			<path class="st2" d="M1911.9,224.5v-3.2h3.4v3.2H1911.9z M1911.9,239.1v-13.2h3.4v13.2H1911.9z"/>
			<path class="st2" d="M1936.8,239.1h-3.4v-13.2h6.1c0.7,0,1.3,0.1,1.8,0.3c0.5,0.2,0.9,0.5,1.2,0.9c0.3,0.3,0.5,0.7,0.6,1.1
				c0.1,0.4,0.2,0.8,0.2,1.1v2h-3.4v-1.3c0-0.1,0-0.2-0.1-0.4c0-0.2-0.1-0.3-0.2-0.4c-0.1-0.1-0.2-0.2-0.4-0.3
				c-0.2-0.1-0.4-0.1-0.6-0.1h-1.7L1936.8,239.1L1936.8,239.1z"/>
			<path class="st2" d="M1961.5,232.7c-0.7-0.7-1-1.7-1-2.8c0-0.6,0.1-1.1,0.3-1.6c0.2-0.5,0.4-0.9,0.8-1.3c0.3-0.3,0.8-0.6,1.3-0.8
				c0.5-0.2,1.1-0.3,1.8-0.3h8.4v2.6h-7.1c-0.2,0-0.4,0-0.7,0c-0.2,0-0.4,0.1-0.6,0.2c-0.2,0.1-0.3,0.2-0.4,0.4
				c-0.1,0.2-0.2,0.4-0.2,0.7c0,0.3,0.1,0.5,0.2,0.7c0.1,0.2,0.2,0.3,0.4,0.4c0.2,0.1,0.4,0.1,0.6,0.2c0.2,0,0.4,0,0.7,0h3.7
				c0.7,0,1.3,0.1,1.8,0.3c0.5,0.2,0.9,0.5,1.3,0.8c0.3,0.3,0.6,0.8,0.8,1.3c0.2,0.5,0.3,1,0.3,1.6c0,1.2-0.3,2.1-1,2.9
				c-0.7,0.7-1.7,1.1-3,1.1h-9.1v-2.6h7.8c0.2,0,0.4,0,0.7,0c0.2,0,0.4-0.1,0.6-0.2c0.2-0.1,0.3-0.2,0.4-0.4
				c0.1-0.2,0.2-0.4,0.2-0.7c0-0.3-0.1-0.5-0.2-0.7c-0.1-0.2-0.2-0.3-0.4-0.4c-0.2-0.1-0.4-0.2-0.6-0.2c-0.2,0-0.4,0-0.7,0h-3.7
				C1963.2,233.8,1962.2,233.4,1961.5,232.7z"/>
			<path class="st2" d="M1990.4,228.6v-2.8h2.4v-5.3h3.4v5.3h3.3v2.8h-3.3v4.8c0,0.3,0,0.6,0,1c0,0.3,0.1,0.7,0.2,0.9
				c0.1,0.3,0.3,0.5,0.6,0.7c0.3,0.2,0.7,0.3,1.2,0.3h1.3v2.8h-2.5c-0.8,0-1.5-0.1-2.1-0.3c-0.5-0.2-1-0.5-1.3-0.9
				c-0.3-0.4-0.5-0.9-0.7-1.4c-0.1-0.5-0.2-1.1-0.2-1.8v-6L1990.4,228.6L1990.4,228.6z"/>
		</g>
	</g>
</g>
</svg>
